<svg xmlns="http://www.w3.org/2000/svg" width="39" height="39" viewBox="0 0 39 39" fill="none">
  <path d="M0.93457 19.6115C0.93457 30.1069 9.26093 38.4309 19.7594 38.4309C30.2579 38.4309 38.5842 29.745 38.5842 19.6115C38.5842 9.1161 29.8959 0.792166 19.7594 0.792166C9.26093 0.430255 0.93457 9.1161 0.93457 19.6115Z" fill="url(#orange_1)"/>
  <path d="M4.19434 19.6108C4.19434 28.2966 11.0727 35.1729 19.761 35.1729C28.4494 35.1729 35.3278 28.2966 35.3278 19.6108C35.3278 10.9249 28.4494 4.04858 19.761 4.04858C11.0727 4.04858 4.19434 10.9249 4.19434 19.6108Z" fill="url(#orangge_2)"/>
  <path d="M35.329 19.6121C35.329 19.2502 35.329 18.5264 35.329 18.1645L29.1748 12.012L19.0383 21.0597L10.7119 26.4884L19.0383 34.8124C19.4003 34.8124 19.4003 34.8124 19.7623 34.8124C28.4507 35.1743 35.329 28.298 35.329 19.6121Z" fill="#E0671F"/>
  <path d="M14.3299 29.0212C13.6058 29.0212 12.8818 28.6593 12.1577 28.2974L7.81356 23.9545C6.72751 22.8688 6.72751 21.0592 7.81356 19.9735C8.89961 18.8877 10.7097 18.8877 11.7958 19.9735L13.9678 22.145L24.4663 11.6495C25.5524 10.5638 27.3624 10.5638 28.4485 11.6495C29.5345 12.7352 29.5345 14.5448 28.4485 15.6305L15.7779 27.9354C15.7779 28.6593 15.0539 29.0212 14.3299 29.0212Z" fill="url(#orange_3)"/>
  <defs>
    <linearGradient id="orange_1" x1="19.7594" y1="0.876795" x2="19.7594" y2="38.3354" gradientUnits="userSpaceOnUse">
      <stop offset="0.349926" stop-color="#FFFFD3"/>
      <stop offset="1" stop-color="#FFC046"/>
    </linearGradient>
    <linearGradient id="orangge_2" x1="7.34557" y1="10.3513" x2="55.8401" y2="49.8384" gradientUnits="userSpaceOnUse">
      <stop stop-color="#FF740F"/>
      <stop offset="1" stop-color="#FFC236"/>
    </linearGradient>
    <linearGradient id="orange_3" x1="18.6129" y1="29.1121" x2="18.6129" y2="10.9633" gradientUnits="userSpaceOnUse">
      <stop stop-color="#FFC148"/>
      <stop offset="1" stop-color="#FFFFD4"/>
    </linearGradient>
  </defs>
</svg>