<svg xmlns="http://www.w3.org/2000/svg" width="1em" height="1em" viewBox="0 0 39 39" fill="none">
  <path
    d="M0.510742 19.6118C0.510742 30.1072 8.8371 38.4312 19.3356 38.4312C29.834 38.4312 38.1604 29.7453 38.1604 19.6118C38.1604 9.11635 29.472 0.79241 19.3356 0.79241C8.8371 0.430499 0.510742 9.11635 0.510742 19.6118Z"
    fill="url(#purple_1)" />
  <path
    d="M3.77148 19.611C3.77148 28.2969 10.6498 35.1731 19.3382 35.1731C28.0266 35.1731 34.9049 28.2969 34.9049 19.611C34.9049 10.9251 28.0266 4.04883 19.3382 4.04883C10.6498 4.04883 3.77148 10.9251 3.77148 19.611Z"
    fill="url(#purple_2)" />
  <path
    d="M34.9062 19.6124C34.9062 19.2504 34.9062 18.5266 34.9062 18.1647L28.7519 12.0122L18.6154 21.06L10.2891 26.4886L18.6154 34.8127C18.9775 34.8127 18.9775 34.8127 19.3395 34.8127C28.0279 35.1746 34.9062 28.2982 34.9062 19.6124Z"
    fill="#D680FA" />
  <path
    d="M13.909 29.0222C13.1849 29.0222 12.4609 28.6603 11.7368 28.2983L7.39266 23.9555C6.30661 22.8697 6.30661 21.0602 7.39266 19.9744C8.47871 18.8887 10.2888 18.8887 11.3749 19.9744L13.5469 22.1459L24.0454 11.6505C25.1315 10.5647 26.9415 10.5647 28.0276 11.6505C29.1136 12.7362 29.1136 14.5457 28.0276 15.6315L15.357 27.9364C15.357 28.6602 14.633 29.0222 13.909 29.0222Z"
    fill="url(#pruple_3)" />
  <defs>
    <linearGradient id="purple_1" x1="19.4054" y1="38.5267" x2="19.4054" y2="0.534367"
      gradientUnits="userSpaceOnUse">
      <stop stop-color="#D890FF" />
      <stop offset="1" stop-color="white" />
    </linearGradient>
    <linearGradient id="purple_2" x1="6.92272" y1="10.3516" x2="55.4173" y2="49.8387"
      gradientUnits="userSpaceOnUse">
      <stop stop-color="#8E23E0" />
      <stop offset="1" stop-color="#DC55F6" />
    </linearGradient>
    <linearGradient id="pruple_3" x1="18.192" y1="29.113" x2="18.192" y2="10.9643"
      gradientUnits="userSpaceOnUse">
      <stop stop-color="#D993FF" />
      <stop offset="1" stop-color="#FFFEFF" />
    </linearGradient>
  </defs>
</svg>