<svg xmlns="http://www.w3.org/2000/svg" width="1em" height="1em" viewBox="0 0 36 36" fill="none">
  <g clip-path="url(#clip0_41_1800)">
    <path d="M23.0037 10.3383C22.8955 10.3383 22.7897 10.307 22.6989 10.2482L22.324 10.006C22.3138 9.99937 22.3037 9.99234 22.2939 9.98489C22.0163 9.77878 21.832 9.47086 21.7814 9.12886C21.7309 8.78685 21.8183 8.43877 22.0244 8.16119C22.0525 8.12315 22.0644 8.07549 22.0575 8.02867C22.0506 7.98185 22.0254 7.93969 21.9874 7.91144L21.7321 7.72202C21.6123 7.63311 21.5328 7.50025 21.5109 7.35267C21.4891 7.20509 21.5268 7.05488 21.6157 6.93508C21.7046 6.81529 21.8375 6.73572 21.9851 6.71389C22.1326 6.69205 22.2828 6.72973 22.4026 6.81865L22.658 7.00849C22.9353 7.2148 23.1194 7.52268 23.1699 7.86456C23.2205 8.20644 23.1333 8.55441 22.9276 8.83212C22.9006 8.86845 22.8885 8.91366 22.8935 8.95862C22.8986 9.00358 22.9206 9.04493 22.9549 9.07434L23.3095 9.30335C23.4115 9.36926 23.4895 9.46643 23.5317 9.58033C23.5739 9.69423 23.5781 9.81873 23.5437 9.93523C23.5093 10.0517 23.4381 10.1539 23.3407 10.2266C23.2434 10.2993 23.1251 10.3384 23.0037 10.3383Z" fill="#F9B534"/>
    <path d="M27.6927 4.47665C27.6831 4.47665 27.6735 4.47665 27.6639 4.47595C27.5901 4.47224 27.5178 4.45403 27.4511 4.42237C27.3843 4.39071 27.3245 4.34621 27.2749 4.29142C27.2254 4.23663 27.1871 4.17261 27.1623 4.10303C27.1375 4.03345 27.1267 3.95967 27.1304 3.88589L27.1568 3.36122C26.8772 3.33666 26.618 3.2047 26.4337 2.99305C26.2494 2.7814 26.1543 2.50654 26.1684 2.22623L26.1918 1.76217C26.1947 1.68783 26.2123 1.61481 26.2436 1.54732C26.2749 1.47984 26.3193 1.41923 26.3742 1.36902C26.4291 1.31881 26.4934 1.27998 26.5634 1.25479C26.6334 1.2296 26.7077 1.21854 26.782 1.22226C26.8563 1.22598 26.9291 1.2444 26.9962 1.27646C27.0634 1.30852 27.1235 1.35357 27.1731 1.40902C27.2227 1.46446 27.2608 1.5292 27.2852 1.59947C27.3096 1.66975 27.3198 1.74417 27.3153 1.81842L27.2942 2.24311C27.5738 2.26763 27.833 2.39959 28.0173 2.61125C28.2016 2.82291 28.2967 3.09778 28.2826 3.37809L28.2545 3.94235C28.2472 4.08647 28.1849 4.2223 28.0803 4.32175C27.9758 4.4212 27.837 4.47666 27.6927 4.47665Z" fill="#65D1DF"/>
    <path d="M17.9795 9.47311C17.8857 9.4732 17.7933 9.44979 17.7108 9.40504C17.6283 9.36029 17.5583 9.29561 17.5072 9.2169L17.178 8.70994C17.1714 8.69968 17.1651 8.68922 17.1591 8.67858C16.9567 8.31622 16.9061 7.88835 17.0187 7.4888C17.1312 7.08925 17.3975 6.75061 17.7593 6.54713C17.8098 6.51882 17.8542 6.48085 17.89 6.43538C17.9258 6.38991 17.9523 6.33784 17.9679 6.28213C17.9836 6.22642 17.9882 6.16817 17.9813 6.11071C17.9745 6.05325 17.9564 5.99769 17.9281 5.94722L17.7176 5.57161C17.6808 5.50714 17.6571 5.43603 17.6479 5.36237C17.6387 5.28871 17.6442 5.21395 17.6641 5.14242C17.6839 5.07089 17.7177 5.004 17.7635 4.94559C17.8093 4.88719 17.8663 4.83843 17.931 4.80213C17.9958 4.76583 18.0671 4.7427 18.1408 4.73409C18.2145 4.72547 18.2892 4.73153 18.3606 4.75192C18.432 4.77232 18.4986 4.80663 18.5567 4.8529C18.6147 4.89916 18.663 4.95646 18.6988 5.02149L18.9094 5.3971C19.0099 5.57645 19.0742 5.77385 19.0984 5.97803C19.1227 6.18221 19.1065 6.38917 19.0508 6.5871C18.995 6.78502 18.9009 6.97002 18.7736 7.13155C18.6464 7.29307 18.4886 7.42795 18.3092 7.52848C18.2096 7.58454 18.1356 7.67707 18.1028 7.78659C18.07 7.89611 18.081 8.01408 18.1335 8.11566L18.4507 8.60412C18.5058 8.68898 18.5371 8.78715 18.5411 8.88827C18.5451 8.98939 18.5218 9.08973 18.4735 9.1787C18.4253 9.26767 18.354 9.34198 18.267 9.39379C18.1801 9.44561 18.0808 9.47301 17.9796 9.47311H17.9795Z" fill="#65D1DF"/>
    <path d="M17.6285 3.29019C17.5326 3.29012 17.4382 3.26551 17.3545 3.21869C17.2707 3.17188 17.2003 3.10441 17.15 3.02271C17.0997 2.94101 17.0711 2.84779 17.0669 2.75192C17.0628 2.65605 17.0833 2.56071 17.1264 2.47498C17.2663 2.196 17.4867 1.96543 17.7592 1.81313C17.861 1.75584 17.936 1.6605 17.9676 1.54803C17.9992 1.43556 17.985 1.31513 17.9279 1.21315L17.7174 0.837545C17.6806 0.773075 17.6569 0.701959 17.6478 0.628297C17.6386 0.554636 17.6441 0.479885 17.6639 0.408354C17.6838 0.336823 17.7176 0.269928 17.7634 0.211523C17.8092 0.153119 17.8661 0.104361 17.9309 0.0680608C17.9956 0.0317603 18.0669 0.00863511 18.1406 1.83494e-05C18.2144 -0.00859841 18.2891 -0.00253631 18.3605 0.0178552C18.4318 0.0382466 18.4985 0.0725642 18.5565 0.118829C18.6146 0.165095 18.6629 0.222393 18.6987 0.28742L18.9092 0.66303C19.1118 1.02532 19.1624 1.45318 19.05 1.85275C18.9375 2.25232 18.6712 2.59097 18.3094 2.79441C18.2328 2.83706 18.1708 2.90176 18.1314 2.98011C18.0846 3.07334 18.0128 3.15172 17.924 3.20648C17.8352 3.26124 17.7329 3.29022 17.6285 3.29019Z" fill="#64A053"/>
    <path d="M32.4601 8.85095H32.453C32.0379 8.8455 31.6419 8.67561 31.3519 8.37854C31.0619 8.08148 30.9016 7.68151 30.9062 7.26639C30.9074 7.14962 30.8623 7.03711 30.7808 6.95351C30.6992 6.8699 30.5879 6.82201 30.4711 6.82033L30.0407 6.8152C29.9668 6.81477 29.8938 6.79979 29.8257 6.77113C29.7576 6.74246 29.6958 6.70067 29.6439 6.64813C29.592 6.59559 29.5509 6.53334 29.523 6.46493C29.4951 6.39652 29.481 6.32329 29.4815 6.24943C29.4819 6.17556 29.4969 6.1025 29.5255 6.03441C29.5542 5.96633 29.596 5.90456 29.6485 5.85264C29.7011 5.80071 29.7633 5.75963 29.8317 5.73176C29.9001 5.70389 29.9734 5.68977 30.0472 5.6902H30.0543L30.4848 5.69533C30.8999 5.70089 31.2958 5.8708 31.5858 6.16781C31.8757 6.46482 32.0361 6.86469 32.0317 7.27975C32.0305 7.39409 32.0736 7.50447 32.1521 7.58762C32.2306 7.67078 32.3383 7.72022 32.4525 7.72553L33.0342 7.69466C33.1831 7.68678 33.3292 7.73839 33.4401 7.83816C33.551 7.93792 33.6178 8.07767 33.6256 8.22665C33.6335 8.37563 33.5819 8.52164 33.4821 8.63256C33.3824 8.74348 33.2426 8.81023 33.0937 8.81812L32.4901 8.85011C32.48 8.85067 32.4701 8.85095 32.4601 8.85095Z" fill="#F9B534"/>
    <path d="M23.8038 5.39663C23.7611 5.39661 23.7185 5.39173 23.6768 5.38208L23.034 5.23372C22.8672 5.19523 22.7096 5.12426 22.5702 5.02486C22.4308 4.92546 22.3124 4.79957 22.2216 4.65439C22.1309 4.50921 22.0697 4.34759 22.0414 4.17874C22.0132 4.00989 22.0185 3.83713 22.057 3.67032C22.0676 3.62423 22.0594 3.57583 22.0344 3.53571C22.0094 3.49559 21.9694 3.46704 21.9234 3.45629L21.142 3.27594C21.07 3.25932 21.002 3.22868 20.9419 3.18579C20.8818 3.14289 20.8307 3.08856 20.7915 3.02592C20.7524 2.96327 20.726 2.89353 20.7138 2.82067C20.7016 2.74781 20.7039 2.67327 20.7205 2.60129C20.7371 2.52931 20.7677 2.46132 20.8106 2.40118C20.8535 2.34104 20.9079 2.28995 20.9705 2.2508C21.0331 2.21166 21.1029 2.18524 21.1757 2.17305C21.2486 2.16087 21.3231 2.16315 21.3951 2.17977L22.1765 2.36019C22.5131 2.43837 22.8049 2.64685 22.988 2.9399C23.1711 3.23295 23.2305 3.58666 23.1532 3.92345C23.1479 3.94628 23.1472 3.96993 23.151 3.99305C23.1549 4.01616 23.1632 4.0383 23.1757 4.05818C23.1881 4.07806 23.2043 4.09531 23.2233 4.10893C23.2424 4.12254 23.264 4.13227 23.2868 4.13755L23.9298 4.28591C24.0647 4.31666 24.1835 4.39607 24.2636 4.50895C24.3436 4.62183 24.3793 4.76027 24.3637 4.89777C24.3481 5.03528 24.2823 5.16221 24.179 5.25428C24.0757 5.34635 23.9421 5.39711 23.8037 5.39685L23.8038 5.39663Z" fill="#F7685F"/>
    <path d="M26.8248 8.79288C26.7324 8.793 26.6415 8.77038 26.56 8.727C26.4785 8.68362 26.4089 8.62084 26.3575 8.54419L25.9033 7.86919C25.8621 7.80789 25.8334 7.73907 25.8187 7.66666C25.8041 7.59425 25.8039 7.51967 25.8181 7.44718C25.8323 7.37468 25.8606 7.3057 25.9015 7.24416C25.9424 7.18262 25.995 7.12973 26.0563 7.08851C26.1176 7.04729 26.1864 7.01855 26.2588 7.00393C26.3312 6.98931 26.4058 6.98909 26.4783 7.00329C26.5508 7.01749 26.6197 7.04583 26.6813 7.08669C26.7428 7.12755 26.7957 7.18014 26.8369 7.24144L27.291 7.91679C27.3479 8.0014 27.3808 8.09988 27.386 8.20171C27.3913 8.30355 27.3688 8.40489 27.3209 8.49491C27.273 8.58494 27.2015 8.66025 27.1142 8.71279C27.0268 8.76534 26.9267 8.79315 26.8248 8.79324V8.79288Z" fill="#64A053"/>
    <path d="M12.9967 10.3383C12.8752 10.3384 12.757 10.2992 12.6596 10.2265C12.5623 10.1539 12.4911 10.0517 12.4566 9.93516C12.4222 9.81866 12.4264 9.69416 12.4687 9.58026C12.5109 9.46636 12.5889 9.36919 12.6909 9.30328L13.0454 9.07427C13.0798 9.04487 13.1017 9.00353 13.1068 8.95858C13.1119 8.91364 13.0997 8.86844 13.0728 8.83212C12.8671 8.55441 12.7799 8.20645 12.8304 7.86458C12.881 7.5227 13.065 7.21482 13.3423 7.00849L13.5977 6.81865C13.7175 6.72973 13.8677 6.69205 14.0153 6.71389C14.1629 6.73572 14.2957 6.81529 14.3846 6.93508C14.4736 7.05488 14.5112 7.20509 14.4894 7.35267C14.4676 7.50025 14.388 7.63311 14.2682 7.72202L14.0129 7.91187C13.9749 7.94012 13.9497 7.98229 13.9428 8.02911C13.9359 8.07593 13.9478 8.12358 13.976 8.16162C14.1821 8.43918 14.2695 8.78725 14.2189 9.12924C14.1684 9.47124 13.984 9.77915 13.7065 9.98524C13.6966 9.99227 13.6866 9.9993 13.6764 10.0063L13.3014 10.2486C13.2106 10.3073 13.1048 10.3384 12.9967 10.3383Z" fill="#F7685F"/>
    <path d="M8.30761 4.47667C8.16338 4.47655 8.02471 4.42102 7.92025 4.32157C7.81578 4.22212 7.75352 4.08635 7.7463 3.9423L7.71818 3.37804C7.70402 3.09775 7.79907 2.82289 7.98335 2.61122C8.16762 2.39955 8.42678 2.26756 8.70635 2.24299L8.68526 1.8183C8.68071 1.74404 8.69094 1.66962 8.71536 1.59935C8.73977 1.52908 8.77788 1.46434 8.82748 1.4089C8.87708 1.35345 8.93719 1.30839 9.00432 1.27634C9.07145 1.24428 9.14428 1.22586 9.21858 1.22214C9.29288 1.21842 9.36718 1.22948 9.43718 1.25467C9.50718 1.27986 9.57149 1.31868 9.62638 1.3689C9.68127 1.41911 9.72565 1.47972 9.75696 1.5472C9.78827 1.61469 9.80589 1.68771 9.80878 1.76205L9.8322 2.22611C9.84624 2.50644 9.75107 2.7813 9.56669 2.99293C9.38231 3.20455 9.12307 3.33647 8.84346 3.36095L8.8699 3.88563C8.87361 3.9594 8.86276 4.03319 8.83795 4.10277C8.81315 4.17235 8.77488 4.23637 8.72534 4.29116C8.6758 4.34595 8.61595 4.39045 8.54921 4.42211C8.48247 4.45377 8.41014 4.47198 8.33637 4.47569C8.32673 4.47646 8.31717 4.47667 8.30761 4.47667Z" fill="#65D1DF"/>
    <path d="M3.54017 8.85092C3.53019 8.85092 3.52027 8.85092 3.51036 8.85015L2.9068 8.81816C2.75782 8.81027 2.61807 8.74352 2.51831 8.6326C2.41854 8.52168 2.36692 8.37567 2.37481 8.22669C2.3827 8.07771 2.44945 7.93796 2.56037 7.8382C2.67129 7.73843 2.8173 7.68682 2.96628 7.6947L3.5479 7.72557C3.66212 7.72026 3.76982 7.67083 3.84831 7.58769C3.92681 7.50455 3.96998 7.39419 3.96872 7.27986C3.96429 6.8648 4.12463 6.46491 4.41457 6.16788C4.70451 5.87084 5.10041 5.70089 5.51546 5.6953L5.94612 5.69016C6.01999 5.68928 6.09331 5.70296 6.16189 5.73041C6.23048 5.75787 6.29298 5.79856 6.34584 5.85017C6.39869 5.90178 6.44087 5.96329 6.46995 6.0312C6.49903 6.09911 6.51446 6.17208 6.51534 6.24595C6.51622 6.31982 6.50254 6.39314 6.47509 6.46172C6.44764 6.5303 6.40694 6.59281 6.35533 6.64566C6.30372 6.69852 6.24221 6.74069 6.1743 6.76978C6.10639 6.79886 6.03342 6.81428 5.95955 6.81516L5.52903 6.8203C5.41219 6.82189 5.30075 6.86975 5.21913 6.95338C5.13752 7.03701 5.0924 7.14958 5.09365 7.26643C5.0982 7.68154 4.93788 8.08151 4.64788 8.37856C4.35788 8.67561 3.96188 8.84549 3.54678 8.85092H3.54017Z" fill="#F9B534"/>
    <path d="M12.1964 5.39664C12.058 5.39691 11.9244 5.34615 11.8211 5.25408C11.7178 5.162 11.652 5.03508 11.6364 4.89757C11.6208 4.76006 11.6564 4.62163 11.7365 4.50875C11.8165 4.39587 11.9354 4.31646 12.0703 4.28571L12.7132 4.13735C12.736 4.13208 12.7576 4.12236 12.7767 4.10875C12.7957 4.09513 12.8119 4.0779 12.8244 4.05802C12.8368 4.03814 12.8451 4.01601 12.849 3.9929C12.8528 3.96979 12.8521 3.94614 12.8468 3.92332C12.7695 3.58643 12.829 3.23264 13.0122 2.93956C13.1954 2.64647 13.4874 2.43804 13.8241 2.35999L14.6054 2.17971C14.6774 2.16309 14.7519 2.1608 14.8248 2.17299C14.8976 2.18518 14.9674 2.2116 15.03 2.25074C15.0926 2.28989 15.147 2.34098 15.1899 2.40112C15.2328 2.46126 15.2634 2.52925 15.28 2.60123C15.2966 2.67321 15.2989 2.74775 15.2867 2.82061C15.2745 2.89346 15.2481 2.96321 15.209 3.02585C15.1698 3.0885 15.1187 3.14282 15.0586 3.18572C14.9985 3.22862 14.9305 3.25926 14.8585 3.27588L14.0768 3.45637C14.0308 3.4671 13.9908 3.49566 13.9658 3.5358C13.9407 3.57594 13.9326 3.62437 13.9432 3.67047C13.9817 3.83729 13.987 4.01006 13.9587 4.17891C13.9304 4.34775 13.8691 4.50938 13.7784 4.65454C13.6876 4.79971 13.5692 4.92557 13.4297 5.02495C13.2903 5.12433 13.1327 5.19527 12.9659 5.23373L12.3231 5.38209C12.2816 5.39172 12.239 5.3966 12.1964 5.39664Z" fill="#F9B534"/>
    <path d="M9.17529 8.79287C9.07332 8.79278 8.97329 8.76498 8.88591 8.71243C8.79852 8.65988 8.72707 8.58457 8.67918 8.49455C8.63129 8.40453 8.60877 8.30318 8.61403 8.20135C8.61929 8.09952 8.65213 8.00103 8.70904 7.91643L9.16312 7.24108C9.24637 7.11727 9.37538 7.03161 9.52179 7.00293C9.66819 6.97425 9.82 7.0049 9.9438 7.08815C10.0676 7.17139 10.1533 7.30041 10.182 7.44681C10.2106 7.59322 10.18 7.74502 10.0967 7.86883L9.64258 8.54383C9.59115 8.62053 9.5216 8.68339 9.4401 8.72682C9.35859 8.77026 9.26764 8.79295 9.17529 8.79287Z" fill="#64A053"/>
    <path d="M14.187 17.9782L10.125 22.6327L9.08161 22.8552H7.3565L6.31313 22.6327L1.15845 16.7259L0.831566 17.0634C0.680838 17.2191 0.587495 17.4213 0.566849 17.637C0.546203 17.8527 0.59948 18.069 0.717941 18.2505L5.00883 24.8231C5.40069 25.4673 5.60795 26.2067 5.60796 26.9606V29.3787H10.8302V26.9606C10.8302 26.2067 11.0375 25.4673 11.4294 24.8231L15.3024 18.8905L14.187 17.9782Z" fill="#FCD3C4"/>
    <path d="M5.6084 29.2441H10.8306V35.4222H5.6084V29.2441Z" fill="#4E6078"/>
    <path d="M8.2218 31.098C8.16428 31.098 8.10912 31.1209 8.06844 31.1615C8.02776 31.2022 8.0049 31.2574 8.00488 31.3149V35.4222H8.43871V31.3149C8.43869 31.2574 8.41583 31.2022 8.37515 31.1615C8.33448 31.1209 8.27931 31.098 8.2218 31.098Z" fill="#47576D"/>
    <path d="M5.6084 29.3787H10.8306V29.7982H5.6084V29.3787Z" fill="#47576D"/>
    <path d="M10.125 22.6327L9.08162 22.8551H7.3565L6.31313 22.6327L2.25125 17.978L1.13574 18.8906L5.00884 24.8233C5.40074 25.4674 5.60803 26.2069 5.60804 26.9608V29.3789H10.8302V26.9608C10.8302 26.2069 11.0375 25.4674 11.4294 24.8233L15.3024 18.8906L14.187 17.9781L10.125 22.6327Z" fill="#F7685F"/>
    <path d="M8.21115 22.0248C8.05941 22.0248 7.77085 21.9063 7.51295 21.6799C7.44047 21.6165 7.37403 21.5466 7.31445 21.471V23.0503C7.31445 23.0503 7.47617 23.803 8.2546 23.803C9.03303 23.803 9.1141 23.0503 9.1141 23.0503V21.4653C8.85725 21.7905 8.44276 22.0248 8.21115 22.0248Z" fill="#FCD3C4"/>
    <path d="M8.2141 22.7161C8.7238 22.5311 9.03514 22.317 9.1141 22.1451V21.4653C8.85725 21.7905 8.44276 22.0248 8.21115 22.0248C8.05941 22.0248 7.77085 21.9063 7.51295 21.6799C7.44047 21.6165 7.37403 21.5466 7.31445 21.471V23.0503C7.3625 23.2354 7.45801 23.4049 7.59155 23.5419C7.5917 23.1474 7.76839 22.8777 8.2141 22.7161Z" fill="#FFC7B5"/>
    <path d="M9.09695 19.1507C8.83208 19.3385 8.69799 19.415 8.43488 19.415C8.35287 19.4142 8.271 19.4079 8.18984 19.3961C7.93794 19.3635 7.69522 19.2804 7.47624 19.1517L7.0813 18.8854L6.91789 19.3328C6.86339 19.4568 6.79599 19.5746 6.7168 19.6844V20.9032C6.7168 21.7285 7.68577 22.3974 8.21101 22.3974C8.73624 22.3974 9.71141 21.7285 9.71141 20.9032V19.1946C9.66767 19.1511 9.61579 19.1167 9.55873 19.0933C9.50168 19.0699 9.44057 19.058 9.3789 19.0582C9.27758 19.0589 9.179 19.0912 9.09695 19.1507Z" fill="#FCD3C4"/>
    <path d="M10.1383 17.4471C10.1383 17.4471 9.84056 17.7987 9.48766 17.7284C9.04392 17.6399 8.71099 17.3866 7.83581 17.3866C7.18655 17.3866 6.22052 17.5399 6.00628 18.5348C5.77495 19.6087 6.71721 20.2255 6.71721 20.2255C6.79997 20.1699 6.87277 20.1008 6.93258 20.021C7.06978 19.8505 7.18276 19.6618 7.26832 19.4603C7.53431 19.6212 7.83088 19.7249 8.13914 19.7648C8.72055 19.8455 8.96503 19.7009 9.31294 19.4543C9.57436 19.2689 9.71182 20.2255 9.71182 20.2255C9.71182 20.2255 10.2022 19.8036 10.3512 19.4765C10.9085 18.2551 10.1383 17.4471 10.1383 17.4471Z" fill="#56585E"/>
    <path d="M21.8127 17.9782L25.8747 22.6327L26.9181 22.8552H28.6434L29.6867 22.6327L34.8414 16.7259L35.1683 17.0634C35.319 17.2191 35.4124 17.4213 35.433 17.637C35.4536 17.8527 35.4004 18.069 35.2819 18.2505L30.991 24.8231C30.5992 25.4673 30.3919 26.2067 30.3919 26.9606V29.3787H25.1695V26.9606C25.1695 26.2067 24.9622 25.4673 24.5703 24.8231L20.6973 18.8905L21.8127 17.9782Z" fill="#FCD3C4"/>
    <path d="M25.1699 29.2441H30.3922V35.4222H25.1699V29.2441Z" fill="#4E6078"/>
    <path d="M27.7833 31.098C27.7258 31.098 27.6706 31.1209 27.63 31.1615C27.5893 31.2022 27.5664 31.2574 27.5664 31.3149V35.4222H28.0002V31.3149C28.0002 31.2574 27.9774 31.2022 27.9367 31.1615C27.896 31.1209 27.8408 31.098 27.7833 31.098Z" fill="#47576D"/>
    <path d="M25.1699 29.3787H30.3922V29.7982H25.1699V29.3787Z" fill="#47576D"/>
    <path d="M29.6864 22.6327L28.6431 22.8551H26.9178L25.8746 22.6327L21.8127 17.978L20.6973 18.8905L24.5703 24.8232C24.9622 25.4673 25.1695 26.2067 25.1695 26.9607V29.3787H30.3917V26.9607C30.3917 26.2067 30.599 25.4673 30.9909 24.8232L34.864 18.8905L33.7485 17.978L29.6864 22.6327Z" fill="#F9B534"/>
    <path d="M27.7727 22.0248C27.6209 22.0248 27.3324 21.9063 27.0745 21.6799C27.002 21.6165 26.9355 21.5466 26.876 21.471V23.0503C26.876 23.0503 27.0377 23.803 27.8161 23.803C28.5946 23.803 28.6756 23.0503 28.6756 23.0503V21.4653C28.4188 21.7905 28.0043 22.0248 27.7727 22.0248Z" fill="#FCD3C4"/>
    <path d="M27.7756 22.7161C28.2853 22.5311 28.5967 22.317 28.6756 22.1451V21.4653C28.4188 21.7905 28.0043 22.0248 27.7727 22.0248C27.6209 22.0248 27.3324 21.9063 27.0745 21.6799C27.002 21.6165 26.9355 21.5466 26.876 21.471V23.0503C26.924 23.2354 27.0195 23.4049 27.1531 23.5419C27.1532 23.1474 27.33 22.8777 27.7756 22.7161Z" fill="#FFC7B5"/>
    <path d="M28.6585 19.1507C28.3936 19.3385 28.2595 19.415 27.9964 19.415C27.9144 19.4142 27.8325 19.4079 27.7514 19.3961C27.4995 19.3635 27.2567 19.2804 27.0378 19.1517L26.6428 18.8854L26.4794 19.3328C26.4249 19.4568 26.3575 19.5746 26.2783 19.6844V20.9032C26.2783 21.7285 27.2473 22.3974 27.7725 22.3974C28.2978 22.3974 29.2729 21.7285 29.2729 20.9032V19.1946C29.2292 19.1511 29.1773 19.1167 29.1203 19.0933C29.0632 19.0699 29.0021 19.058 28.9404 19.0582C28.8391 19.0589 28.7405 19.0912 28.6585 19.1507Z" fill="#FCD3C4"/>
    <path d="M29.6998 17.4471C29.6998 17.4471 29.4021 17.7987 29.0492 17.7284C28.6054 17.6399 28.2725 17.3866 27.3973 17.3866C26.7481 17.3866 25.782 17.5399 25.5678 18.5348C25.3365 19.6087 26.2787 20.2255 26.2787 20.2255C26.3615 20.1699 26.4343 20.1008 26.4941 20.021C26.6313 19.8505 26.7443 19.6618 26.8298 19.4603C27.0958 19.6212 27.3924 19.7249 27.7007 19.7648C28.2821 19.8455 28.5266 19.7009 28.8745 19.4543C29.1359 19.2689 29.2733 20.2255 29.2733 20.2255C29.2733 20.2255 29.7637 19.8036 29.9128 19.4765C30.4699 18.2551 29.6998 17.4471 29.6998 17.4471Z" fill="#56585E"/>
    <path d="M14.7021 27.4109H21.4739V35.4222H14.7021V27.4109Z" fill="#4E6078"/>
    <path d="M22.251 21.6783L27.8151 13.1555C27.9686 12.9202 28.0377 12.6396 28.0108 12.3599C27.984 12.0802 27.8629 11.818 27.6674 11.6161L27.2436 11.1783L20.5598 18.8378L19.2069 19.1261H16.9694L15.6165 18.8378L8.93231 11.1782L8.50825 11.6161C8.31276 11.8179 8.19167 12.0802 8.16484 12.3599C8.13801 12.6396 8.20704 12.9201 8.3606 13.1554L13.9247 21.6783C14.4328 22.5135 14.7016 23.4724 14.7017 24.45V27.5854H21.4739V24.45C21.474 23.4723 21.7428 22.5135 22.251 21.6783Z" fill="#FCD3C4"/>
    <path d="M18.0918 29.8149C18.0172 29.8149 17.9457 29.8445 17.8929 29.8973C17.8402 29.95 17.8105 30.0215 17.8105 30.0961V35.4222H18.373V30.0961C18.373 30.0215 18.3434 29.95 18.2907 29.8973C18.2379 29.8445 18.1664 29.8149 18.0918 29.8149Z" fill="#47576D"/>
    <path d="M14.7021 27.5854H21.4739V28.1294H14.7021V27.5854Z" fill="#47576D"/>
    <path d="M20.5592 18.8378L19.2063 19.1261H16.9689L15.6159 18.8378L10.3488 12.8021L8.90234 13.9852L13.9246 21.6781C14.4328 22.5133 14.7015 23.4721 14.7016 24.4498V27.5852H21.4733V24.45C21.4733 23.4724 21.7421 22.5135 22.2503 21.6783L27.2727 13.9852L25.8262 12.8019L20.5592 18.8378Z" fill="#4F98F6"/>
    <path d="M18.0769 18.0496C17.88 18.0496 17.506 17.8959 17.1715 17.6022C17.0776 17.52 16.9914 17.4293 16.9141 17.3313V19.3792C16.9141 19.3792 17.1239 20.3555 18.1331 20.3555C19.1424 20.3555 19.2477 19.3793 19.2477 19.3793V17.324C18.9149 17.7456 18.3774 18.0496 18.0769 18.0496Z" fill="#FCD3C4"/>
    <path d="M18.0815 18.9459C18.7425 18.7061 19.1462 18.4285 19.2487 18.2056V17.324C18.9157 17.7458 18.3782 18.0495 18.0779 18.0495C17.881 18.0495 17.5069 17.8959 17.1725 17.6022C17.0785 17.52 16.9923 17.4293 16.915 17.3313V19.3792C16.9774 19.6193 17.1012 19.8391 17.2744 20.0167C17.2745 19.5053 17.5036 19.1555 18.0815 18.9459Z" fill="#FFC7B5"/>
    <path d="M19.2261 14.3227C18.8826 14.5662 18.7087 14.6654 18.3676 14.6654C18.2612 14.6645 18.1551 14.6563 18.0498 14.6409C17.7232 14.5987 17.4084 14.4909 17.1244 14.324L16.6123 13.9787L16.4004 14.5589C16.3298 14.7196 16.2424 14.8724 16.1396 15.0148V16.5952C16.1396 17.6653 17.3962 18.5328 18.0772 18.5328C18.7583 18.5328 20.0229 17.6653 20.0229 16.5952V14.3796C19.9662 14.3231 19.8989 14.2785 19.8249 14.2481C19.7509 14.2177 19.6716 14.2023 19.5916 14.2026C19.4603 14.2036 19.3325 14.2455 19.2261 14.3227Z" fill="#FCD3C4"/>
    <path d="M20.5765 12.1135C20.5765 12.1135 20.1904 12.5698 19.7327 12.4786C19.1573 12.3639 18.7256 12.0356 17.5907 12.0356C16.7488 12.0356 15.4962 12.2343 15.2183 13.5246C14.9183 14.9168 16.1402 15.7169 16.1402 15.7169C16.2475 15.6448 16.3419 15.5552 16.4194 15.4517C16.5974 15.2306 16.7439 14.9859 16.8548 14.7247C17.1997 14.9332 17.5843 15.0677 17.984 15.1196C18.738 15.2241 19.055 15.0367 19.5061 14.7169C19.8451 14.4765 20.0234 15.7169 20.0234 15.7169C20.0234 15.7169 20.6592 15.1695 20.8526 14.7457C21.5752 13.1611 20.5765 12.1135 20.5765 12.1135Z" fill="#56585E"/>
  </g>
  <defs>
    <clipPath id="clip0_41_1800">
      <rect width="36" height="36" fill="white"/>
    </clipPath>
  </defs>
</svg>