<svg xmlns="http://www.w3.org/2000/svg" width="1em" height="1em" viewBox="0 0 24 24" fill="none">
  <g clip-path="url(#clip0_264_5640)">
    <path d="M19.0312 18.375C17.4802 18.375 16.2188 17.1136 16.2188 15.5625C16.2188 14.0114 17.4802 12.7031 19.0312 12.7031C20.5823 12.7031 21.8438 14.0114 21.8438 15.5625C21.8438 17.1136 20.5823 18.375 19.0312 18.375Z" fill="#F6A96C"/>
    <path d="M19.0306 18.375C17.9602 18.375 16.9769 18.7256 16.1693 19.3059L15.1367 21.6383L16.9213 24H23.9994V23.2969C23.9994 20.5787 21.7488 18.375 19.0306 18.375Z" fill="#4F98F6"/>
    <path d="M3.5625 5.93976L1.38446 7.07812L1.79791 4.58112L0 2.87347L2.4928 2.52191L3.5625 0L4.65839 2.52191L7.07812 2.87347L5.32709 4.58112L5.74054 7.07812L3.5625 5.93976Z" fill="#FFDA2D"/>
    <path d="M13.7578 4.57489L14.1797 7.07812L12 5.93903L9.82031 7.07812L10.2422 4.57489L8.48438 2.87347L10.9312 2.52191L12 0L13.097 2.52191L15.5156 2.87347L13.7578 4.57489Z" fill="#FFDA2D"/>
    <path d="M20.4375 5.93976L18.2595 7.07812L18.6729 4.58112L16.9219 2.87347L19.3678 2.52191L20.4375 0L21.5334 2.52191L24 2.87347L22.2021 4.58112L22.6155 7.07812L20.4375 5.93976Z" fill="#FDBF00"/>
    <path d="M4.96875 18.375C3.41766 18.375 2.15625 17.1136 2.15625 15.5625C2.15625 14.0114 3.41766 12.7031 4.96875 12.7031C6.51984 12.7031 7.78125 14.0114 7.78125 15.5625C7.78125 17.1136 6.51984 18.375 4.96875 18.375Z" fill="#FFBD86"/>
    <path d="M4.96875 18.375C2.25055 18.375 0 20.5787 0 23.2969V24H7.07812L8.82239 21.8906L7.83014 19.3061C7.02246 18.7256 6.03918 18.375 4.96875 18.375Z" fill="#4F98F6"/>
    <path d="M14.1797 7.07812L12 5.93903V0L13.097 2.52191L15.5156 2.87347L13.7578 4.57489L14.1797 7.07812Z" fill="#FDBF00"/>
    <path d="M12 11.2969C10.4531 11.2969 9.1875 12.5625 9.1875 14.1094C9.1875 15.6562 10.4531 16.9688 12 16.9688C13.5469 16.9688 14.8125 15.6562 14.8125 14.1094C14.8125 12.5625 13.5469 11.2969 12 11.2969Z" fill="#FED2A4"/>
    <path d="M16.9219 21.8906V24H7.07812V21.8906C7.07812 20.9344 7.35938 20.0625 7.82355 19.3032C8.69531 17.9108 10.2422 16.9688 12 16.9688C13.7578 16.9688 15.3047 17.9108 16.1765 19.3032C16.6406 20.0625 16.9219 20.9344 16.9219 21.8906Z" fill="#FF637B"/>
    <path d="M12 16.9688V11.2969C13.5469 11.2969 14.8125 12.5625 14.8125 14.1094C14.8125 15.6562 13.5469 16.9688 12 16.9688Z" fill="#F6A96C"/>
    <path d="M16.9219 21.8906V24H12V16.9688C13.7578 16.9688 15.3047 17.9108 16.1765 19.3032C16.6406 20.0625 16.9219 20.9344 16.9219 21.8906Z" fill="#E63950"/>
  </g>
</svg>